<svg xmlns="http://www.w3.org/2000/svg" fill="none" viewBox="0 0 394 80">
  <path fill="#000" fill-rule="evenodd" d="M262 59.2c-5.4 0-10.4-2.2-14.1-5.9l-26.6-26.6v27h-7.6V20.2h7.6v28.8l26.6-26.6h10l-25.2 25.2c2.7 2.7 6.4 4.3 10.4 4.3 8.3 0 15-6.7 15-15h7.6c0 12.5-10.1 22.6-22.6 22.6zm63-31.5c-3.1-4.8-8.4-7.8-14.3-7.8-9 0-16.3 7.3-16.3 16.3 0 8.9 7.3 16.2 16.3 16.2 5.9 0 11.2-3 14.3-7.8l6.5 4.3c-4.3 6.7-11.7 11.1-20.8 11.1-13.2 0-23.9-10.7-23.9-23.9s10.7-23.9 23.9-23.9c9 0 16.5 4.4 20.8 11.1l-6.5 4.4zm-14.3 12c4 0 7.6-2.4 9.1-6h-18.2c1.5 3.6 5.1 6 9.1 6zm10.7-10.2c-1-3-3.6-5.4-6.8-6.1V28.3c4.5.8 8.1 4.1 9.4 8.6l-2.6.9zm50.2-2.3c0-10.1-8.2-18.3-18.3-18.3s-18.3 8.2-18.3 18.3 8.2 18.3 18.3 18.3 18.3-8.2 18.3-18.3zm-7.6 0c0 5.9-4.8 10.7-10.7 10.7s-10.7-4.8-10.7-10.7 4.8-10.7 10.7-10.7 10.7 4.8 10.7 10.7zm-14-6.1h6.6v12.2h-6.6V21.1zm22.4 12.2h-6.6V21.1h6.6v12.2zm11.7-17.5h7.6v23.9h-7.6V15.8zM41.7 15.8v23.9h-7.6v-22L13 41.5V15.8H5.4v28.8h7.6l21.1-19.8v19.8h7.6V15.8zm45.3 17.5c0 5.9-4.8 10.7-10.7 10.7-5.9 0-10.7-4.8-10.7-10.7s4.8-10.7 10.7-10.7c5.9 0 10.7 4.8 10.7 10.7zm7.6 0c0-10.1-8.2-18.3-18.3-18.3-10.1 0-18.3 8.2-18.3 18.3s8.2 18.3 18.3 18.3c10.1 0 18.3-8.2 18.3-18.3zm25.7 11.3l-10-15.1-10 15.1h-8.9l14.4-21.7-13.8-20.7h8.9l9.4 14.1 9.4-14.1h8.9l-13.8 20.7 14.4 21.7h-8.9zm13-11.3c0-10.1-8.2-18.3-18.3-18.3v7.6c5.9 0 10.7 4.8 10.7 10.7s-4.8 10.7-10.7 10.7v7.6c10.1 0 18.3-8.2 18.3-18.3zM186 15.8h-11v28.8h7.6V23.4h3.4V15.8zm-19.8 0h-7.6v28.8h7.6V15.8z" clip-rule="evenodd"/>
</svg>
